<?xml version="1.0" encoding="UTF-8" standalone="no"?>
<svg
   width="225.28114mm"
   height="36.745972mm"
   version="1.1"
   viewBox="0 0 225.28114 36.745973"
   id="svg10"
   sodipodi:docname="new-pattern.svg"
   inkscape:version="1.1-dev (60f6cd61d9, 2020-09-21)"
   xmlns:inkscape="http://www.inkscape.org/namespaces/inkscape"
   xmlns:sodipodi="http://sodipodi.sourceforge.net/DTD/sodipodi-0.dtd"
   xmlns="http://www.w3.org/2000/svg"
   xmlns:svg="http://www.w3.org/2000/svg">
  <defs
     id="defs14" />
  <sodipodi:namedview
     pagecolor="#ffffff"
     bordercolor="#666666"
     borderopacity="1"
     objecttolerance="10"
     gridtolerance="10"
     guidetolerance="10"
     inkscape:pageopacity="0"
     inkscape:pageshadow="2"
     inkscape:window-width="1600"
     inkscape:window-height="845"
     id="namedview12"
     showgrid="false"
     inkscape:zoom="1.5404019"
     inkscape:cx="499.86956"
     inkscape:cy="88.28865"
     inkscape:window-x="0"
     inkscape:window-y="27"
     inkscape:window-maximized="1"
     inkscape:current-layer="layer2" />
  <g
     inkscape:groupmode="layer"
     id="layer2"
     inkscape:label="Layer 2"
     transform="translate(42.138866,-51.923042)">
    <rect
       style="fill:none;fill-rule:evenodd;stroke-width:0.720674;stroke-dashoffset:7.05071;stop-color:#000000"
       id="rect1223"
       width="225.28114"
       height="36.745972"
       x="-42.138866"
       y="51.923042" />
  </g>
  <g
     inkscape:groupmode="layer"
     id="layer1"
     inkscape:label="Layer 1"
     transform="translate(42.138866,-51.923042)">
    <path
       d="m 99.614752,74.217227 -5.53e-4,-0.03178 c -0.03304,-0.08961 -0.38423,-1.03733 -0.71722,-1.36563 -0.349216,-0.344267 -1.4266,-0.643678 -1.4266,-0.643678 0,0 1.05938,-0.358085 1.38922,-0.72093 0.314552,-0.34601 0.61362,-1.31138 0.641487,-1.40266 l -5.53e-4,-0.03178 c 0,0 0.0049,0.0147 0.0049,0.01589 3.71e-4,-7e-4 0.0049,-0.0161 0.0049,-0.0161 l 5.53e-4,0.03178 c 0.03304,0.08963 0.384041,1.03719 0.717014,1.36549 0.34923,0.344267 1.42681,0.643846 1.42681,0.643846 0,0 -1.05959,0.357917 -1.38943,0.72079 -0.314563,0.34601 -0.613428,1.31152 -0.641288,1.4028 l 5.6e-4,0.03178 c 0,0 -0.0049,-0.01477 -0.0049,-0.01589 -3.71e-4,7e-4 -0.0049,0.0161 -0.0049,0.0161 z"
       stop-color="#000000"
       id="path2481"
       style="fill:#fefef9;fill-rule:evenodd;stroke-width:0.7" />
    <circle
       cx="142.86119"
       cy="60.223087"
       stop-color="#000000"
       id="circle2497"
       style="fill:#f5cf68;fill-rule:evenodd;stroke-width:0.7"
       r="0.61628002" />
    <circle
       transform="matrix(-0.72033556,0.69362575,0.69362575,0.72033556,0,0)"
       cx="-2.1499796"
       cy="98.173065"
       stop-color="#000000"
       id="circle2505"
       style="fill:#f5cf68;fill-rule:evenodd;stroke-width:0.700007"
       r="0.61628377" />
    <circle
       cx="-1.5713195"
       cy="73.184013"
       stop-color="#000000"
       id="circle2507"
       style="fill:#f5cf68;fill-rule:evenodd;stroke-width:0.7"
       r="0.61628002" />
    <path
       d="m 50.6607,68.572399 v 0.03178 c 0.03136,0.09024 0.364574,1.0444 0.691313,1.37893 0.342769,0.350679 1.41421,0.670523 1.41421,0.670523 0,0 -1.06596,0.338002 -1.40259,0.694554 -0.32102,0.340025 -0.638281,1.299551 -0.667856,1.390341 v 0.03178 c 0,0 -0.0049,-0.01477 -0.0049,-0.01596 -3.71e-4,5.55e-4 -0.0049,0.01596 -0.0049,0.01596 v -0.03178 c -0.03136,-0.09024 -0.364378,-1.044261 -0.691117,-1.378791 -0.342776,-0.3507 -1.41435,-0.670684 -1.41435,-0.670684 0,0 1.0661,-0.337841 1.4028,-0.694421 0.321027,-0.340025 0.638113,-1.29976 0.667674,-1.39048 v -0.03178 c 0,0 0.0049,0.01491 0.0049,0.01596 3.71e-4,-5.56e-4 0.0049,-0.01596 0.0049,-0.01596 z"
       fill="#fefef9"
       fill-rule="evenodd"
       stop-color="#000000"
       id="path2513"
       style="stroke-width:0.7" />
    <path
       d="m 171.48801,67.799886 v 0.03178 c 0.0314,0.09024 0.36457,1.0444 0.69131,1.37893 0.34277,0.350679 1.41421,0.670523 1.41421,0.670523 0,0 -1.06596,0.338002 -1.40259,0.694554 -0.32102,0.340025 -0.63828,1.29955 -0.66786,1.39034 v 0.03178 c 0,0 -0.005,-0.01477 -0.005,-0.01596 -3.7e-4,5.56e-4 -0.005,0.01596 -0.005,0.01596 v -0.03178 c -0.0314,-0.09024 -0.36437,-1.04426 -0.69111,-1.37879 -0.34278,-0.3507 -1.41435,-0.670684 -1.41435,-0.670684 0,0 1.0661,-0.337841 1.4028,-0.694421 0.32102,-0.340025 0.63811,-1.29976 0.66767,-1.39048 v -0.03178 c 0,0 0.005,0.01491 0.005,0.01596 3.7e-4,-5.56e-4 0.005,-0.01596 0.005,-0.01596 z"
       fill="#fefef9"
       stop-color="#000000"
       id="path2549"
       style="fill-rule:evenodd;stroke-width:0.7" />
    <path
       d="m -18.646933,67.321767 v 0.03178 c 0.03136,0.09024 0.364574,1.0444 0.691313,1.37893 0.342769,0.350679 1.41421,0.670523 1.41421,0.670523 0,0 -1.06596,0.338002 -1.40259,0.694554 -0.32102,0.340025 -0.638281,1.29955 -0.667856,1.39034 v 0.03178 c 0,0 -0.0049,-0.01477 -0.0049,-0.01596 -3.71e-4,5.56e-4 -0.0049,0.01596 -0.0049,0.01596 v -0.03178 c -0.03136,-0.09024 -0.364378,-1.04426 -0.691117,-1.37879 -0.342776,-0.3507 -1.414351,-0.670684 -1.414351,-0.670684 0,0 1.066101,-0.337841 1.402801,-0.694421 0.321027,-0.340025 0.638113,-1.29976 0.667674,-1.39048 v -0.03178 c 0,0 0.0049,0.01491 0.0049,0.01596 3.71e-4,-5.55e-4 0.0049,-0.01596 0.0049,-0.01596 z"
       fill="#fefef9"
       fill-rule="evenodd"
       stop-color="#000000"
       id="path2557"
       style="stroke-width:0.7" />
    <circle
       transform="matrix(-0.72033556,0.69362575,0.69362575,0.72033556,0,0)"
       cx="-16.540649"
       cy="105.60263"
       stop-color="#000000"
       id="circle3538"
       style="fill:#f5cf68;fill-rule:evenodd;stroke-width:0.700007"
       r="0.61628377" />
    <circle
       cx="157.69885"
       cy="62.987865"
       stop-color="#000000"
       id="circle1227"
       style="fill:#f5cf68;fill-rule:evenodd;stroke-width:0.7"
       r="0.61628002" />
    <circle
       cx="25.435373"
       cy="71.702301"
       stop-color="#000000"
       id="circle834"
       style="fill:#f5cf68;fill-rule:evenodd;stroke-width:0.7"
       r="0.61628002" />
    <circle
       cx="114.59737"
       cy="69.416077"
       stop-color="#000000"
       id="circle844"
       style="fill:#f5cf68;fill-rule:evenodd;stroke-width:0.7"
       r="0.61628002" />
    <path
       d="m 109.83544,58.940229 v 0.03178 c 0.0314,0.09024 0.36457,1.0444 0.69131,1.37893 0.34277,0.350679 1.41421,0.670523 1.41421,0.670523 0,0 -1.06596,0.338002 -1.40259,0.694554 -0.32102,0.340025 -0.63828,1.29955 -0.66785,1.39034 v 0.03178 c 0,0 -0.005,-0.01477 -0.005,-0.01596 -3.7e-4,5.56e-4 -0.005,0.01596 -0.005,0.01596 v -0.03178 c -0.0314,-0.09024 -0.36438,-1.04426 -0.69112,-1.37879 -0.34278,-0.3507 -1.41435,-0.670684 -1.41435,-0.670684 0,0 1.0661,-0.337841 1.4028,-0.694421 0.32103,-0.340025 0.63811,-1.29976 0.66767,-1.39048 v -0.03178 c 0,0 0.005,0.01491 0.005,0.01596 3.7e-4,-5.56e-4 0.005,-0.01596 0.005,-0.01596 z"
       fill="#fefef9"
       stop-color="#000000"
       id="path836"
       style="fill-rule:evenodd;stroke-width:0.7" />
    <path
       d="m 144.1413,70.41924 v 0.03178 c 0.0314,0.09024 0.36457,1.0444 0.69131,1.37893 0.34277,0.350679 1.41421,0.670523 1.41421,0.670523 0,0 -1.06596,0.338002 -1.40259,0.694554 -0.32102,0.340025 -0.63828,1.29955 -0.66785,1.39034 v 0.03178 c 0,0 -0.005,-0.01477 -0.005,-0.01596 -3.7e-4,5.56e-4 -0.005,0.01596 -0.005,0.01596 v -0.03178 c -0.0314,-0.09024 -0.36438,-1.04426 -0.69112,-1.37879 -0.34278,-0.3507 -1.41435,-0.670684 -1.41435,-0.670684 0,0 1.0661,-0.337841 1.4028,-0.694421 0.32103,-0.340025 0.63811,-1.29976 0.66767,-1.39048 v -0.03178 c 0,0 0.005,0.01491 0.005,0.01596 3.7e-4,-5.56e-4 0.005,-0.01596 0.005,-0.01596 z"
       fill="#fefef9"
       stop-color="#000000"
       id="path838"
       style="fill-rule:evenodd;stroke-width:0.7" />
    <circle
       cx="131.1349"
       cy="68.610664"
       stop-color="#000000"
       id="circle840"
       style="fill:#f5cf68;fill-rule:evenodd;stroke-width:0.7"
       r="0.61628002" />
    <circle
       cx="-33.959396"
       cy="72.191109"
       stop-color="#000000"
       id="circle837"
       style="fill:#f5cf68;fill-rule:evenodd;stroke-width:0.7"
       r="0.61628002" />
  </g>
</svg>
