<svg width="11" height="11" viewBox="0 0 11 11" fill="none" xmlns="http://www.w3.org/2000/svg">
<path d="M4.56974 1.35872C4.90266 0.514571 6.09734 0.514571 6.43026 1.35872L7.17913 3.2575C7.28078 3.51522 7.48478 3.71922 7.7425 3.82087L9.64129 4.56974C10.4854 4.90266 10.4854 6.09734 9.64128 6.43026L7.7425 7.17913C7.48478 7.28078 7.28078 7.48478 7.17913 7.7425L6.43026 9.64129C6.09734 10.4854 4.90266 10.4854 4.56974 9.64128L3.82087 7.7425C3.71922 7.48478 3.51522 7.28078 3.2575 7.17913L1.35872 6.43026C0.514571 6.09734 0.514571 4.90266 1.35872 4.56974L3.2575 3.82087C3.51522 3.71922 3.71922 3.51522 3.82087 3.2575L4.56974 1.35872Z" fill="#113065"/>
</svg>
